<?xml version="1.0" encoding="UTF-8" standalone="no"?>
<svg width="600" height="400" viewBox="0 0 600 400" fill="none" xmlns="http://www.w3.org/2000/svg">
  <rect width="600" height="400" fill="#F0F9FF"/>

  <!-- Background elements -->
  <circle cx="100" cy="300" r="80" fill="#DBEAFE" />
  <circle cx="500" cy="100" r="60" fill="#DBEAFE" />
  <circle cx="300" cy="350" r="40" fill="#DBEAFE" />

  <!-- Building/Cooperative -->
  <rect x="200" y="150" width="200" height="150" fill="#3B82F6" />
  <rect x="220" y="170" width="40" height="60" fill="#DBEAFE" />
  <rect x="280" y="170" width="40" height="60" fill="#DBEAFE" />
  <rect x="340" y="170" width="40" height="60" fill="#DBEAFE" />
  <rect x="220" y="240" width="40" height="60" fill="#DBEAFE" />
  <rect x="340" y="240" width="40" height="60" fill="#DBEAFE" />
  <rect x="280" y="240" width="40" height="60" fill="#DBEAFE" />
  <rect x="180" y="150" width="240" height="20" fill="#1E40AF" />
  <rect x="200" y="300" width="200" height="10" fill="#1E40AF" />

  <!-- Entrance -->
  <rect x="280" y="260" width="40" height="50" fill="#1E40AF" />

  <!-- Roof -->
  <polygon points="300,100 180,150 420,150" fill="#1E40AF" />

  <!-- People -->
  <circle cx="150" cy="320" r="15" fill="#3B82F6" />
  <rect x="145" y="335" width="10" height="25" fill="#3B82F6" />
  <rect x="135" y="345" width="30" height="5" fill="#3B82F6" />
  <rect x="145" y="360" width="5" height="15" fill="#3B82F6" />
  <rect x="155" y="360" width="5" height="15" fill="#3B82F6" />

  <circle cx="450" cy="320" r="15" fill="#3B82F6" />
  <rect x="445" y="335" width="10" height="25" fill="#3B82F6" />
  <rect x="435" y="345" width="30" height="5" fill="#3B82F6" />
  <rect x="445" y="360" width="5" height="15" fill="#3B82F6" />
  <rect x="455" y="360" width="5" height="15" fill="#3B82F6" />

  <!-- Money/Coins -->
  <circle cx="100" cy="150" r="25" fill="#FBBF24" stroke="#D97706" stroke-width="3" />
  <text x="90" y="155" font-family="Arial" font-size="20" font-weight="bold" fill="#D97706">₱</text>

  <circle cx="500" cy="200" r="25" fill="#FBBF24" stroke="#D97706" stroke-width="3" />
  <text x="490" y="205" font-family="Arial" font-size="20" font-weight="bold" fill="#D97706">₱</text>

  <circle cx="150" cy="100" r="25" fill="#FBBF24" stroke="#D97706" stroke-width="3" />
  <text x="140" y="105" font-family="Arial" font-size="20" font-weight="bold" fill="#D97706">₱</text>

  <!-- Growth Chart -->
  <line x1="50" y1="250" x2="50" y2="150" stroke="#3B82F6" stroke-width="3" />
  <line x1="50" y1="250" x2="150" y2="250" stroke="#3B82F6" stroke-width="3" />
  <polyline points="50,230 70,220 90,200 110,180 130,170" stroke="#10B981" stroke-width="3" fill="none" />

  <!-- Document/Loan -->
  <rect x="450" cy="250" width="40" height="50" fill="white" stroke="#3B82F6" stroke-width="2" />
  <line x1="460" y1="260" x2="480" y2="260" stroke="#3B82F6" stroke-width="2" />
  <line x1="460" y1="270" x2="480" y2="270" stroke="#3B82F6" stroke-width="2" />
  <line x1="460" y1="280" x2="480" y2="280" stroke="#3B82F6" stroke-width="2" />
  <line x1="460" y1="290" x2="470" y2="290" stroke="#3B82F6" stroke-width="2" />
</svg>
