<?xml version="1.0" encoding="UTF-8" standalone="no"?>
<svg width="200" height="200" viewBox="0 0 200 200" fill="none" xmlns="http://www.w3.org/2000/svg">
  <circle cx="100" cy="100" r="90" fill="#007bff" />
  <path d="M100 30C61.34 30 30 61.34 30 100C30 138.66 61.34 170 100 170C138.66 170 170 138.66 170 100C170 61.34 138.66 30 100 30ZM100 160C67.36 160 40 132.64 40 100C40 67.36 67.36 40 100 40C132.64 40 160 67.36 160 100C160 132.64 132.64 160 100 160Z" fill="white" />
  <path d="M100 60C77.94 60 60 77.94 60 100C60 122.06 77.94 140 100 140C122.06 140 140 122.06 140 100C140 77.94 122.06 60 100 60ZM100 130C83.46 130 70 116.54 70 100C70 83.46 83.46 70 100 70C116.54 70 130 83.46 130 100C130 116.54 116.54 130 100 130Z" fill="white" />
  <path d="M100 80C88.96 80 80 88.96 80 100C80 111.04 88.96 120 100 120C111.04 120 120 111.04 120 100C120 88.96 111.04 80 100 80Z" fill="white" />
  <path d="M70 50L130 150" stroke="white" stroke-width="10" stroke-linecap="round" />
  <path d="M130 50L70 150" stroke="white" stroke-width="10" stroke-linecap="round" />
</svg>
